<svg xmlns="http://www.w3.org/2000/svg" width="26" height="26" viewBox="0 0 26 26">
    <g fill="none" fill-rule="evenodd">
        <path fill="none" d="M0 0h26v26H0z"/>
        <path fill="#5A81EA" d="M24 6.5h-.5v13a1 1 0 0 1-1 1h-19v.5c0 .828.672 1.5 1.5 1.5h19c.828 0 1.5-.672 1.5-1.5V8c0-.828-.672-1.5-1.5-1.5z"/>
        <path fill="#5A81EA" d="M22.5 18V5c0-.828-.672-1.5-1.5-1.5H2C1.172 3.5.5 4.172.5 5v13c0 .828.672 1.5 1.5 1.5h19c.828 0 1.5-.672 1.5-1.5zM5 17.5H3a.5.5 0 1 1 0-1h2a.5.5 0 1 1 0 1zm6.5-2c-1.654 0-3-1.794-3-4s1.346-4 3-4 3 1.794 3 4-1.346 4-3 4zm8.5-9h-2a.5.5 0 1 1 0-1h2a.5.5 0 1 1 0 1z"/>
    </g>
</svg>
