<svg xmlns="http://www.w3.org/2000/svg" width="30" height="30" viewBox="0 0 30 30">
    <g fill="none" fill-rule="evenodd">
        <path fill="#D8D8D8" fill-opacity="0" d="M0 0h30v30H0z"/>
        <path fill="#F7931A" fill-rule="nonzero" d="M29.551 18.628c-2.004 8.036-10.143 12.927-18.181 10.923C3.336 27.547-1.555 19.408.45 11.373 2.451 3.337 10.591-1.555 18.626.45c8.037 2.003 12.928 10.143 10.924 18.18z"/>
        <path fill="#FFF" fill-rule="nonzero" d="M21.612 12.863c.298-1.996-1.222-3.069-3.3-3.785l.674-2.703-1.646-.41-.656 2.632a67.24 67.24 0 0 0-1.319-.31l.66-2.65-1.644-.41-.675 2.703c-.358-.082-.71-.162-1.05-.247v-.009l-2.269-.566-.438 1.757s1.221.28 1.196.298c.666.166.786.607.766.957l-.767 3.08c.046.012.105.028.17.055l-.173-.043-1.076 4.314c-.082.203-.289.507-.755.391.017.024-1.196-.298-1.196-.298l-.817 1.883 2.142.534c.398.1.789.204 1.173.303l-.68 2.735 1.643.41.675-2.706c.45.122.885.235 1.312.34l-.672 2.694 1.645.41.682-2.73c2.807.531 4.917.317 5.805-2.221.716-2.044-.035-3.223-1.512-3.992 1.075-.248 1.886-.955 2.102-2.416zm-3.76 5.273c-.51 2.044-3.95.94-5.067.662l.904-3.623c1.116.278 4.694.83 4.162 2.961zm.508-5.302c-.464 1.859-3.328.914-4.257.682l.819-3.285c.929.231 3.921.664 3.438 2.603z"/>
    </g>
</svg>
