<svg xmlns="http://www.w3.org/2000/svg" width="26" height="26" viewBox="0 0 26 26">
    <g fill="none" fill-rule="evenodd">
        <path fill="none" d="M0 0h26v26H0z"/>
        <path fill="#FFF" fill-rule="nonzero" d="M2.9 8.771V1.478a.48.48 0 0 1 .96 0v7.293h1.599a1.2 1.2 0 0 1 1.2 1.2v8.918a1.2 1.2 0 0 1-1.2 1.2H3.86v4.433a.48.48 0 0 1-.96 0v-4.433H1.3a1.2 1.2 0 0 1-1.2-1.2V9.971a1.2 1.2 0 0 1 1.2-1.2h1.6zm-1.6 1a.2.2 0 0 0-.2.2v8.918c0 .11.09.2.2.2h4.159a.2.2 0 0 0 .2-.2V9.971a.2.2 0 0 0-.2-.2H1.3zM12.4 6.41V1.478a.48.48 0 0 1 .96 0V6.41h1.607a.7.7 0 0 1 .7.7v6.088a.7.7 0 0 1-.7.7H13.36v3.972a.48.48 0 0 1-.96 0v-3.972h-1.591a.7.7 0 0 1-.7-.7V7.11a.7.7 0 0 1 .7-.7H12.4zm-1.291 1v5.488h3.558V7.41H11.11zM20.6 7.408v9.27h3.559v-9.27H20.6zm1.3-1v-4.93a.48.48 0 0 1 .96 0v4.93h1.599a.7.7 0 0 1 .7.7v9.87a.7.7 0 0 1-.7.7H22.86v6.844a.48.48 0 0 1-.96 0v-6.844h-1.6a.7.7 0 0 1-.7-.7v-9.87a.7.7 0 0 1 .7-.7h1.6z"/>
    </g>
</svg>
