<svg xmlns="http://www.w3.org/2000/svg" width="26" height="26" viewBox="0 0 26 26">
    <g fill="none" fill-rule="evenodd">
        <path fill="none" d="M0 0h26v26H0z"/>
        <path fill="#FFF" fill-rule="nonzero" d="M19.246 5.171c2.367 1.982 3.734 4.948 3.734 8.114 0 5.743-4.468 10.4-9.98 10.4-5.512 0-9.98-4.656-9.98-10.4 0-3.166 1.367-6.132 3.733-8.112a.614.614 0 0 0 .089-.84.567.567 0 0 0-.818-.093C3.385 6.448 1.86 9.756 1.86 13.285c0 6.406 4.987 11.6 11.14 11.6 6.152 0 11.14-5.194 11.14-11.6 0-3.529-1.525-6.837-4.165-9.047a.567.567 0 0 0-.818.092.614.614 0 0 0 .089.841z"/>
        <path fill="#FFF" fill-rule="nonzero" d="M12.42 1.48v10.833a.58.58 0 0 0 1.16 0V1.48a.58.58 0 0 0-1.16 0z"/>
    </g>
</svg>
