<svg xmlns="http://www.w3.org/2000/svg" width="26" height="26" viewBox="0 0 26 26">
    <g fill="none" fill-rule="evenodd">
        <path fill="#D8D8D8" fill-opacity="0" d="M0 0h26v26H0z"/>
        <path fill="#8C8C8C" d="M24.5 11h-23c-.3 0-.5.2-.5.5v7C1 19.9 2.1 21 3.5 21h19c1.4 0 2.5-1.1 2.5-2.5v-7c0-.3-.2-.5-.5-.5zm-20 4h4c.3 0 .5.2.5.5s-.2.5-.5.5h-4c-.3 0-.5-.2-.5-.5s.2-.5.5-.5zm7 3h-7c-.3 0-.5-.2-.5-.5s.2-.5.5-.5h7c.3 0 .5.2.5.5s-.2.5-.5.5zm8.5 0c-.4 0-.7-.1-1-.3-.3.2-.6.3-1 .3-1.1 0-2-.9-2-2s.9-2 2-2c.4 0 .7.1 1 .3.3-.2.6-.3 1-.3 1.1 0 2 .9 2 2s-.9 2-2 2zM22.5 5h-19C2.1 5 1 6.1 1 7.5v1c0 .3.2.5.5.5h23c.3 0 .5-.2.5-.5v-1C25 6.1 23.9 5 22.5 5z"/>
    </g>
</svg>
