<svg xmlns="http://www.w3.org/2000/svg" width="26" height="26" viewBox="0 0 26 26">
    <g fill="none" fill-rule="evenodd">
        <path fill="none" d="M0 0h26v26H0z"/>
        <path fill="#8C8C8C" d="M22.68 6.478h-4.84V5.174C17.839 3.974 16.854 3 15.64 3h-5.28c-1.214.001-2.199.974-2.2 2.174v1.304H3.32C2.591 6.48 2 7.063 2 7.783v13.913c0 .72.591 1.303 1.32 1.304h19.36c.729 0 1.32-.584 1.32-1.304V7.783c0-.72-.591-1.304-1.32-1.305zM9.04 5.174c0-.72.591-1.304 1.32-1.304h5.28c.729 0 1.32.584 1.32 1.304v1.304H9.04V5.174zm11 13.478H5.96a.437.437 0 0 1-.44-.435c0-.24.197-.434.44-.434h14.08c.243 0 .44.194.44.434s-.197.435-.44.435zm0-3.478H5.96a.437.437 0 0 1-.44-.435c0-.24.197-.435.44-.435h14.08c.243 0 .44.195.44.435s-.197.435-.44.435zm0-3.478H5.96a.437.437 0 0 1-.44-.435c0-.24.197-.435.44-.435h14.08c.243 0 .44.195.44.435s-.197.435-.44.435z"/>
    </g>
</svg>
