<svg xmlns="http://www.w3.org/2000/svg" width="26" height="26" viewBox="0 0 26 26">
    <g fill="none" fill-rule="evenodd">
        <path fill="#D8D8D8" fill-opacity="0" d="M0 0h26v26H0z"/>
        <path fill="#8C8C8C" d="M2 13c0 6.075 4.925 11 11 11s11-4.925 11-11S19.075 2 13 2A11 11 0 0 0 2 13zm14.08-4.64v8.618l1.889-1.89a.44.44 0 1 1 .622.623l-2.64 2.64a.44.44 0 0 1-.622 0l-2.64-2.64a.44.44 0 0 1 .622-.622l1.889 1.889V8.36a.44.44 0 1 1 .88 0zm-5.409-.711l2.64 2.64a.44.44 0 0 1-.622.622L10.8 9.022v8.618a.44.44 0 1 1-.88 0V9.022l-1.889 1.89a.44.44 0 0 1-.622-.623l2.64-2.64a.44.44 0 0 1 .622 0z"/>
    </g>
</svg>
