<svg xmlns="http://www.w3.org/2000/svg" width="31" height="30" viewBox="0 0 31 30">
    <g fill="none" fill-rule="nonzero">
        <path fill="#48B04C" d="M15.5 0C7.216 0 .5 6.716.5 15c0 8.284 6.716 15 15 15 8.284 0 15-6.716 15-15 0-8.284-6.716-15-15-15z"/>
        <path fill="#FFF" d="M10.51 18.233v-.076h2.718c0 .83.226 1.435.604 1.812.377.378.906.529 1.586.529.604 0 1.132-.151 1.434-.453.302-.302.453-.755.453-1.284 0-.528-.15-.981-.453-1.283-.302-.302-.83-.605-1.66-.907-1.436-.528-2.568-1.057-3.248-1.736-.68-.68-1.057-1.586-1.057-2.794 0-1.133.378-1.963 1.057-2.719.68-.68 1.661-1.132 2.87-1.208V6h1.51v2.114c1.208.151 2.114.604 2.794 1.36.68.755.981 1.736.981 2.944v.076h-2.794c0-.68-.15-1.284-.453-1.661-.302-.378-.755-.604-1.359-.604s-1.057.15-1.284.453c-.302.302-.377.755-.377 1.283 0 .529.15.906.453 1.208.302.303.83.605 1.661.982 1.435.453 2.568 1.057 3.247 1.737.755.68 1.057 1.586 1.057 2.794 0 1.132-.377 2.038-1.057 2.718-.68.68-1.661 1.057-2.945 1.208V24.5h-1.51v-1.888c-1.284-.075-2.265-.528-3.096-1.283-.83-.756-1.208-1.813-1.133-3.172v.076z"/>
    </g>
</svg>
