<svg xmlns="http://www.w3.org/2000/svg" width="26" height="26" viewBox="0 0 26 26">
    <g fill="none" fill-rule="evenodd">
        <path fill="none" d="M0 0h26v26H0z"/>
        <path fill="#FFF" d="M24.48 12.42H20.8c-2.007 0-3.64 1.645-3.64 3.666 0 2.022 1.633 3.666 3.64 3.666h3.68v1.57c0 1.471-1.187 2.666-2.64 2.666H4.16c-1.453 0-2.64-1.195-2.64-2.665V10.85c0-1.47 1.187-2.666 2.64-2.666h17.68c1.453 0 2.64 1.195 2.64 2.666v1.57z"/>
        <path fill="#FFF" d="M20.8 13.468h3.68v5.236H20.8a2.612 2.612 0 0 1-2.6-2.618 2.612 2.612 0 0 1 2.6-2.618zm0 4.19c.86 0 1.56-.706 1.56-1.572 0-.866-.7-1.57-1.56-1.57-.86 0-1.56.704-1.56 1.57 0 .866.7 1.571 1.56 1.571z"/>
        <path fill="#FFF" fill-rule="nonzero" d="M20.8 16.957c.472 0 .86-.39.86-.87 0-.481-.388-.872-.86-.872s-.86.39-.86.871c0 .48.388.871.86.871zM24.052 7.94c-.54-1.334-1.815-2.446-3.403-2.765l.992 2.01c.608-.03 1.535.07 2.41.755zM4.03 7.184L7.891 5.09H6.554C4.431 5.013 2.77 6.11 1.942 7.942c.755-.553 1.12-.622 2.088-.758zm7.367-.001l7.14-3.893c-.44-.628-.86-.916-1.498-1.116-.898-.282-1.67 0-2.359.434L6.237 7.183h5.16zM20.475 7.186l-1.456-2.944-5.441 2.944z"/>
    </g>
</svg>
